<mxfile host="65bd71144e" modified="2020-11-09T11:27:09.547Z" agent="5.0 (Macintosh; Intel Mac OS X 10_15_7) AppleWebKit/537.36 (KHTML, like Gecko) Code/1.51.0 Chrome/83.0.4103.122 Electron/9.3.3 Safari/537.36" etag="ggKxrD70e0F8X7KFtrDc" version="13.6.5" pages="12">
    <diagram id="jSflmeTWKZC5N9udb8eS" name="Page-1">
        <mxGraphModel dx="1402" dy="860" grid="1" gridSize="10" guides="1" tooltips="1" connect="1" arrows="1" fold="1" page="1" pageScale="1" pageWidth="800" pageHeight="800" math="0" shadow="0">
            <root>
                <mxCell id="0"/>
                <mxCell id="1" parent="0"/>
                <mxCell id="6" value="10" style="whiteSpace=wrap;html=1;aspect=fixed;fontFamily=Fira Code;" parent="1" vertex="1">
                    <mxGeometry x="340" y="40" width="40" height="40" as="geometry"/>
                </mxCell>
                <mxCell id="3sSBsssJ497s5XPA8a3r-6" value="" style="whiteSpace=wrap;html=1;aspect=fixed;fontFamily=Fira Code;" parent="1" vertex="1">
                    <mxGeometry x="380" y="40" width="40" height="40" as="geometry"/>
                </mxCell>
                <mxCell id="3sSBsssJ497s5XPA8a3r-7" value="" style="whiteSpace=wrap;html=1;aspect=fixed;fontFamily=Fira Code;" parent="1" vertex="1">
                    <mxGeometry x="420" y="40" width="40" height="40" as="geometry"/>
                </mxCell>
            </root>
        </mxGraphModel>
    </diagram>
    <diagram name="Copy of Page-1" id="vW4O04oCvlxqWSpvt2fV">
        <mxGraphModel dx="1402" dy="860" grid="1" gridSize="10" guides="1" tooltips="1" connect="1" arrows="1" fold="1" page="1" pageScale="1" pageWidth="800" pageHeight="800" math="0" shadow="0">
            <root>
                <mxCell id="edkmVFXcTQLYBrRiFU7G-0"/>
                <mxCell id="edkmVFXcTQLYBrRiFU7G-1" parent="edkmVFXcTQLYBrRiFU7G-0"/>
                <mxCell id="edkmVFXcTQLYBrRiFU7G-2" value="5" style="whiteSpace=wrap;html=1;aspect=fixed;fontFamily=Fira Code;" parent="edkmVFXcTQLYBrRiFU7G-1" vertex="1">
                    <mxGeometry x="340" y="40" width="40" height="40" as="geometry"/>
                </mxCell>
                <mxCell id="edkmVFXcTQLYBrRiFU7G-3" value="10" style="whiteSpace=wrap;html=1;aspect=fixed;fontFamily=Fira Code;" parent="edkmVFXcTQLYBrRiFU7G-1" vertex="1">
                    <mxGeometry x="380" y="40" width="40" height="40" as="geometry"/>
                </mxCell>
                <mxCell id="gsvmyzwYFbpRsst4HRaz-0" value="" style="whiteSpace=wrap;html=1;aspect=fixed;fontFamily=Fira Code;" parent="edkmVFXcTQLYBrRiFU7G-1" vertex="1">
                    <mxGeometry x="420" y="40" width="40" height="40" as="geometry"/>
                </mxCell>
            </root>
        </mxGraphModel>
    </diagram>
    <diagram name="Copy of Copy of Page-1" id="3f-eCcMz_Pz4XnxtALBP">
        <mxGraphModel dx="1402" dy="860" grid="1" gridSize="10" guides="1" tooltips="1" connect="1" arrows="1" fold="1" page="1" pageScale="1" pageWidth="800" pageHeight="800" math="0" shadow="0">
            <root>
                <mxCell id="F4AiqEDkDBKOchriZzQ6-0"/>
                <mxCell id="F4AiqEDkDBKOchriZzQ6-1" parent="F4AiqEDkDBKOchriZzQ6-0"/>
                <mxCell id="F4AiqEDkDBKOchriZzQ6-2" value="5" style="whiteSpace=wrap;html=1;aspect=fixed;fontFamily=Fira Code;" parent="F4AiqEDkDBKOchriZzQ6-1" vertex="1">
                    <mxGeometry x="340" y="40" width="40" height="40" as="geometry"/>
                </mxCell>
                <mxCell id="F4AiqEDkDBKOchriZzQ6-3" value="10" style="whiteSpace=wrap;html=1;aspect=fixed;fontFamily=Fira Code;" parent="F4AiqEDkDBKOchriZzQ6-1" vertex="1">
                    <mxGeometry x="380" y="40" width="40" height="40" as="geometry"/>
                </mxCell>
                <mxCell id="F4AiqEDkDBKOchriZzQ6-4" value="50" style="whiteSpace=wrap;html=1;aspect=fixed;fontFamily=Fira Code;" parent="F4AiqEDkDBKOchriZzQ6-1" vertex="1">
                    <mxGeometry x="420" y="40" width="40" height="40" as="geometry"/>
                </mxCell>
            </root>
        </mxGraphModel>
    </diagram>
    <diagram name="Copy of Copy of Copy of Page-1" id="cWSgJ4WwTyV_Buq5GDcI">
        <mxGraphModel dx="1402" dy="860" grid="1" gridSize="10" guides="1" tooltips="1" connect="1" arrows="1" fold="1" page="1" pageScale="1" pageWidth="800" pageHeight="800" math="0" shadow="0">
            <root>
                <mxCell id="eugpAuXFZZ59PvQqNU6A-0"/>
                <mxCell id="eugpAuXFZZ59PvQqNU6A-1" parent="eugpAuXFZZ59PvQqNU6A-0"/>
                <mxCell id="eugpAuXFZZ59PvQqNU6A-2" value="10" style="whiteSpace=wrap;html=1;aspect=fixed;fontFamily=Fira Code;" parent="eugpAuXFZZ59PvQqNU6A-1" vertex="1">
                    <mxGeometry x="340" y="40" width="40" height="40" as="geometry"/>
                </mxCell>
                <mxCell id="o6DHdoXIGCm-vmMk9d78-1" style="edgeStyle=none;rounded=0;orthogonalLoop=1;jettySize=auto;html=1;exitX=0;exitY=1;exitDx=0;exitDy=0;entryX=0.5;entryY=0;entryDx=0;entryDy=0;endArrow=none;endFill=0;fontFamily=Fira Code;" parent="eugpAuXFZZ59PvQqNU6A-1" source="eugpAuXFZZ59PvQqNU6A-3" target="3DvH5JIvGUksHtCnbaT4-1" edge="1">
                    <mxGeometry relative="1" as="geometry"/>
                </mxCell>
                <mxCell id="eugpAuXFZZ59PvQqNU6A-3" value="" style="whiteSpace=wrap;html=1;aspect=fixed;fontFamily=Fira Code;" parent="eugpAuXFZZ59PvQqNU6A-1" vertex="1">
                    <mxGeometry x="380" y="40" width="40" height="40" as="geometry"/>
                </mxCell>
                <mxCell id="eugpAuXFZZ59PvQqNU6A-4" value="" style="whiteSpace=wrap;html=1;aspect=fixed;fontFamily=Fira Code;" parent="eugpAuXFZZ59PvQqNU6A-1" vertex="1">
                    <mxGeometry x="420" y="40" width="40" height="40" as="geometry"/>
                </mxCell>
                <mxCell id="3DvH5JIvGUksHtCnbaT4-0" value="50" style="whiteSpace=wrap;html=1;aspect=fixed;fontFamily=Fira Code;" parent="eugpAuXFZZ59PvQqNU6A-1" vertex="1">
                    <mxGeometry x="260" y="120" width="40" height="40" as="geometry"/>
                </mxCell>
                <mxCell id="3DvH5JIvGUksHtCnbaT4-1" value="" style="whiteSpace=wrap;html=1;aspect=fixed;fontFamily=Fira Code;" parent="eugpAuXFZZ59PvQqNU6A-1" vertex="1">
                    <mxGeometry x="300" y="120" width="40" height="40" as="geometry"/>
                </mxCell>
                <mxCell id="3DvH5JIvGUksHtCnbaT4-2" value="" style="whiteSpace=wrap;html=1;aspect=fixed;fontFamily=Fira Code;" parent="eugpAuXFZZ59PvQqNU6A-1" vertex="1">
                    <mxGeometry x="340" y="120" width="40" height="40" as="geometry"/>
                </mxCell>
                <mxCell id="3DvH5JIvGUksHtCnbaT4-3" value="5" style="whiteSpace=wrap;html=1;aspect=fixed;fontFamily=Fira Code;" parent="eugpAuXFZZ59PvQqNU6A-1" vertex="1">
                    <mxGeometry x="100" y="120" width="40" height="40" as="geometry"/>
                </mxCell>
                <mxCell id="3DvH5JIvGUksHtCnbaT4-4" value="" style="whiteSpace=wrap;html=1;aspect=fixed;fontFamily=Fira Code;" parent="eugpAuXFZZ59PvQqNU6A-1" vertex="1">
                    <mxGeometry x="140" y="120" width="40" height="40" as="geometry"/>
                </mxCell>
                <mxCell id="o6DHdoXIGCm-vmMk9d78-0" style="edgeStyle=none;rounded=0;orthogonalLoop=1;jettySize=auto;html=1;exitX=0.5;exitY=0;exitDx=0;exitDy=0;entryX=0;entryY=1;entryDx=0;entryDy=0;endArrow=none;endFill=0;fontFamily=Fira Code;" parent="eugpAuXFZZ59PvQqNU6A-1" source="3DvH5JIvGUksHtCnbaT4-4" target="eugpAuXFZZ59PvQqNU6A-2" edge="1">
                    <mxGeometry relative="1" as="geometry"/>
                </mxCell>
                <mxCell id="3DvH5JIvGUksHtCnbaT4-5" value="" style="whiteSpace=wrap;html=1;aspect=fixed;fontFamily=Fira Code;" parent="eugpAuXFZZ59PvQqNU6A-1" vertex="1">
                    <mxGeometry x="180" y="120" width="40" height="40" as="geometry"/>
                </mxCell>
            </root>
        </mxGraphModel>
    </diagram>
    <diagram name="Copy of Copy of Copy of Copy of Page-1" id="ow6mjXKGOrk9qTL-9Fiu">
        <mxGraphModel dx="1402" dy="860" grid="1" gridSize="10" guides="1" tooltips="1" connect="1" arrows="1" fold="1" page="1" pageScale="1" pageWidth="800" pageHeight="800" math="0" shadow="0">
            <root>
                <mxCell id="bh-Q_smUvotEOLrtS8Co-0"/>
                <mxCell id="bh-Q_smUvotEOLrtS8Co-1" parent="bh-Q_smUvotEOLrtS8Co-0"/>
                <mxCell id="bh-Q_smUvotEOLrtS8Co-2" value="10" style="whiteSpace=wrap;html=1;aspect=fixed;fontFamily=Fira Code;" parent="bh-Q_smUvotEOLrtS8Co-1" vertex="1">
                    <mxGeometry x="340" y="40" width="40" height="40" as="geometry"/>
                </mxCell>
                <mxCell id="bh-Q_smUvotEOLrtS8Co-3" style="edgeStyle=none;rounded=0;orthogonalLoop=1;jettySize=auto;html=1;exitX=0;exitY=1;exitDx=0;exitDy=0;entryX=0.5;entryY=0;entryDx=0;entryDy=0;endArrow=none;endFill=0;fontFamily=Fira Code;" parent="bh-Q_smUvotEOLrtS8Co-1" source="bh-Q_smUvotEOLrtS8Co-4" target="bh-Q_smUvotEOLrtS8Co-7" edge="1">
                    <mxGeometry relative="1" as="geometry"/>
                </mxCell>
                <mxCell id="bh-Q_smUvotEOLrtS8Co-4" value="" style="whiteSpace=wrap;html=1;aspect=fixed;fontFamily=Fira Code;" parent="bh-Q_smUvotEOLrtS8Co-1" vertex="1">
                    <mxGeometry x="380" y="40" width="40" height="40" as="geometry"/>
                </mxCell>
                <mxCell id="bh-Q_smUvotEOLrtS8Co-5" value="" style="whiteSpace=wrap;html=1;aspect=fixed;fontFamily=Fira Code;" parent="bh-Q_smUvotEOLrtS8Co-1" vertex="1">
                    <mxGeometry x="420" y="40" width="40" height="40" as="geometry"/>
                </mxCell>
                <mxCell id="bh-Q_smUvotEOLrtS8Co-6" value="35" style="whiteSpace=wrap;html=1;aspect=fixed;fontFamily=Fira Code;" parent="bh-Q_smUvotEOLrtS8Co-1" vertex="1">
                    <mxGeometry x="260" y="120" width="40" height="40" as="geometry"/>
                </mxCell>
                <mxCell id="bh-Q_smUvotEOLrtS8Co-7" value="50" style="whiteSpace=wrap;html=1;aspect=fixed;fontFamily=Fira Code;" parent="bh-Q_smUvotEOLrtS8Co-1" vertex="1">
                    <mxGeometry x="300" y="120" width="40" height="40" as="geometry"/>
                </mxCell>
                <mxCell id="bh-Q_smUvotEOLrtS8Co-8" value="" style="whiteSpace=wrap;html=1;aspect=fixed;fontFamily=Fira Code;" parent="bh-Q_smUvotEOLrtS8Co-1" vertex="1">
                    <mxGeometry x="340" y="120" width="40" height="40" as="geometry"/>
                </mxCell>
                <mxCell id="bh-Q_smUvotEOLrtS8Co-9" value="5" style="whiteSpace=wrap;html=1;aspect=fixed;fontFamily=Fira Code;" parent="bh-Q_smUvotEOLrtS8Co-1" vertex="1">
                    <mxGeometry x="100" y="120" width="40" height="40" as="geometry"/>
                </mxCell>
                <mxCell id="bh-Q_smUvotEOLrtS8Co-10" value="" style="whiteSpace=wrap;html=1;aspect=fixed;fontFamily=Fira Code;" parent="bh-Q_smUvotEOLrtS8Co-1" vertex="1">
                    <mxGeometry x="140" y="120" width="40" height="40" as="geometry"/>
                </mxCell>
                <mxCell id="bh-Q_smUvotEOLrtS8Co-11" style="edgeStyle=none;rounded=0;orthogonalLoop=1;jettySize=auto;html=1;exitX=0.5;exitY=0;exitDx=0;exitDy=0;entryX=0;entryY=1;entryDx=0;entryDy=0;endArrow=none;endFill=0;fontFamily=Fira Code;" parent="bh-Q_smUvotEOLrtS8Co-1" source="bh-Q_smUvotEOLrtS8Co-10" target="bh-Q_smUvotEOLrtS8Co-2" edge="1">
                    <mxGeometry relative="1" as="geometry"/>
                </mxCell>
                <mxCell id="bh-Q_smUvotEOLrtS8Co-12" value="" style="whiteSpace=wrap;html=1;aspect=fixed;fontFamily=Fira Code;" parent="bh-Q_smUvotEOLrtS8Co-1" vertex="1">
                    <mxGeometry x="180" y="120" width="40" height="40" as="geometry"/>
                </mxCell>
            </root>
        </mxGraphModel>
    </diagram>
    <diagram name="Copy of Copy of Copy of Copy of Copy of Page-1" id="eTb29d6EsC4kxwq8kTm0">
        <mxGraphModel dx="1402" dy="860" grid="1" gridSize="10" guides="1" tooltips="1" connect="1" arrows="1" fold="1" page="1" pageScale="1" pageWidth="800" pageHeight="800" math="0" shadow="0">
            <root>
                <mxCell id="wp5Nh7wE5JxuKt0Tf9Hm-0"/>
                <mxCell id="wp5Nh7wE5JxuKt0Tf9Hm-1" parent="wp5Nh7wE5JxuKt0Tf9Hm-0"/>
                <mxCell id="wp5Nh7wE5JxuKt0Tf9Hm-2" value="10" style="whiteSpace=wrap;html=1;aspect=fixed;fontFamily=Fira Code;" parent="wp5Nh7wE5JxuKt0Tf9Hm-1" vertex="1">
                    <mxGeometry x="340" y="40" width="40" height="40" as="geometry"/>
                </mxCell>
                <mxCell id="wp5Nh7wE5JxuKt0Tf9Hm-3" style="edgeStyle=none;rounded=0;orthogonalLoop=1;jettySize=auto;html=1;exitX=0;exitY=1;exitDx=0;exitDy=0;entryX=0.5;entryY=0;entryDx=0;entryDy=0;endArrow=none;endFill=0;fontFamily=Fira Code;" parent="wp5Nh7wE5JxuKt0Tf9Hm-1" source="wp5Nh7wE5JxuKt0Tf9Hm-4" target="wp5Nh7wE5JxuKt0Tf9Hm-7" edge="1">
                    <mxGeometry relative="1" as="geometry"/>
                </mxCell>
                <mxCell id="wp5Nh7wE5JxuKt0Tf9Hm-4" value="" style="whiteSpace=wrap;html=1;aspect=fixed;fontFamily=Fira Code;" parent="wp5Nh7wE5JxuKt0Tf9Hm-1" vertex="1">
                    <mxGeometry x="380" y="40" width="40" height="40" as="geometry"/>
                </mxCell>
                <mxCell id="wp5Nh7wE5JxuKt0Tf9Hm-5" value="" style="whiteSpace=wrap;html=1;aspect=fixed;fontFamily=Fira Code;" parent="wp5Nh7wE5JxuKt0Tf9Hm-1" vertex="1">
                    <mxGeometry x="420" y="40" width="40" height="40" as="geometry"/>
                </mxCell>
                <mxCell id="wp5Nh7wE5JxuKt0Tf9Hm-6" value="35" style="whiteSpace=wrap;html=1;aspect=fixed;fontFamily=Fira Code;" parent="wp5Nh7wE5JxuKt0Tf9Hm-1" vertex="1">
                    <mxGeometry x="260" y="120" width="40" height="40" as="geometry"/>
                </mxCell>
                <mxCell id="wp5Nh7wE5JxuKt0Tf9Hm-7" value="40" style="whiteSpace=wrap;html=1;aspect=fixed;fontFamily=Fira Code;" parent="wp5Nh7wE5JxuKt0Tf9Hm-1" vertex="1">
                    <mxGeometry x="300" y="120" width="40" height="40" as="geometry"/>
                </mxCell>
                <mxCell id="wp5Nh7wE5JxuKt0Tf9Hm-8" value="50" style="whiteSpace=wrap;html=1;aspect=fixed;fontFamily=Fira Code;" parent="wp5Nh7wE5JxuKt0Tf9Hm-1" vertex="1">
                    <mxGeometry x="340" y="120" width="40" height="40" as="geometry"/>
                </mxCell>
                <mxCell id="wp5Nh7wE5JxuKt0Tf9Hm-9" value="5" style="whiteSpace=wrap;html=1;aspect=fixed;fontFamily=Fira Code;" parent="wp5Nh7wE5JxuKt0Tf9Hm-1" vertex="1">
                    <mxGeometry x="100" y="120" width="40" height="40" as="geometry"/>
                </mxCell>
                <mxCell id="wp5Nh7wE5JxuKt0Tf9Hm-10" value="" style="whiteSpace=wrap;html=1;aspect=fixed;fontFamily=Fira Code;" parent="wp5Nh7wE5JxuKt0Tf9Hm-1" vertex="1">
                    <mxGeometry x="140" y="120" width="40" height="40" as="geometry"/>
                </mxCell>
                <mxCell id="wp5Nh7wE5JxuKt0Tf9Hm-11" style="edgeStyle=none;rounded=0;orthogonalLoop=1;jettySize=auto;html=1;exitX=0.5;exitY=0;exitDx=0;exitDy=0;entryX=0;entryY=1;entryDx=0;entryDy=0;endArrow=none;endFill=0;fontFamily=Fira Code;" parent="wp5Nh7wE5JxuKt0Tf9Hm-1" source="wp5Nh7wE5JxuKt0Tf9Hm-10" target="wp5Nh7wE5JxuKt0Tf9Hm-2" edge="1">
                    <mxGeometry relative="1" as="geometry"/>
                </mxCell>
                <mxCell id="wp5Nh7wE5JxuKt0Tf9Hm-12" value="" style="whiteSpace=wrap;html=1;aspect=fixed;fontFamily=Fira Code;" parent="wp5Nh7wE5JxuKt0Tf9Hm-1" vertex="1">
                    <mxGeometry x="180" y="120" width="40" height="40" as="geometry"/>
                </mxCell>
            </root>
        </mxGraphModel>
    </diagram>
    <diagram name="Copy of Copy of Copy of Copy of Copy of Copy of Copy of Page-1" id="FwIlke-cni1KL6696ZxX">
        <mxGraphModel dx="1402" dy="860" grid="1" gridSize="10" guides="1" tooltips="1" connect="1" arrows="1" fold="1" page="1" pageScale="1" pageWidth="800" pageHeight="800" math="0" shadow="0">
            <root>
                <mxCell id="Q0WurAzwjxZzjut6yVpk-0"/>
                <mxCell id="Q0WurAzwjxZzjut6yVpk-1" parent="Q0WurAzwjxZzjut6yVpk-0"/>
                <mxCell id="Q0WurAzwjxZzjut6yVpk-2" value="10" style="whiteSpace=wrap;html=1;aspect=fixed;fontFamily=Fira Code;" parent="Q0WurAzwjxZzjut6yVpk-1" vertex="1">
                    <mxGeometry x="340" y="40" width="40" height="40" as="geometry"/>
                </mxCell>
                <mxCell id="Q0WurAzwjxZzjut6yVpk-3" style="edgeStyle=none;rounded=0;orthogonalLoop=1;jettySize=auto;html=1;exitX=0;exitY=1;exitDx=0;exitDy=0;entryX=0.5;entryY=0;entryDx=0;entryDy=0;endArrow=none;endFill=0;fontFamily=Fira Code;" parent="Q0WurAzwjxZzjut6yVpk-1" source="Q0WurAzwjxZzjut6yVpk-4" target="Q0WurAzwjxZzjut6yVpk-7" edge="1">
                    <mxGeometry relative="1" as="geometry"/>
                </mxCell>
                <mxCell id="Q0WurAzwjxZzjut6yVpk-4" value="40" style="whiteSpace=wrap;html=1;aspect=fixed;fontFamily=Fira Code;" parent="Q0WurAzwjxZzjut6yVpk-1" vertex="1">
                    <mxGeometry x="380" y="40" width="40" height="40" as="geometry"/>
                </mxCell>
                <mxCell id="Q0WurAzwjxZzjut6yVpk-5" value="" style="whiteSpace=wrap;html=1;aspect=fixed;fontFamily=Fira Code;" parent="Q0WurAzwjxZzjut6yVpk-1" vertex="1">
                    <mxGeometry x="420" y="40" width="40" height="40" as="geometry"/>
                </mxCell>
                <mxCell id="Q0WurAzwjxZzjut6yVpk-6" value="35" style="whiteSpace=wrap;html=1;aspect=fixed;fontFamily=Fira Code;" parent="Q0WurAzwjxZzjut6yVpk-1" vertex="1">
                    <mxGeometry x="260" y="120" width="40" height="40" as="geometry"/>
                </mxCell>
                <mxCell id="Q0WurAzwjxZzjut6yVpk-7" value="50" style="whiteSpace=wrap;html=1;aspect=fixed;fontFamily=Fira Code;" parent="Q0WurAzwjxZzjut6yVpk-1" vertex="1">
                    <mxGeometry x="300" y="120" width="40" height="40" as="geometry"/>
                </mxCell>
                <mxCell id="Q0WurAzwjxZzjut6yVpk-8" value="" style="whiteSpace=wrap;html=1;aspect=fixed;fontFamily=Fira Code;" parent="Q0WurAzwjxZzjut6yVpk-1" vertex="1">
                    <mxGeometry x="340" y="120" width="40" height="40" as="geometry"/>
                </mxCell>
                <mxCell id="Q0WurAzwjxZzjut6yVpk-9" value="5" style="whiteSpace=wrap;html=1;aspect=fixed;fontFamily=Fira Code;" parent="Q0WurAzwjxZzjut6yVpk-1" vertex="1">
                    <mxGeometry x="100" y="120" width="40" height="40" as="geometry"/>
                </mxCell>
                <mxCell id="Q0WurAzwjxZzjut6yVpk-10" value="" style="whiteSpace=wrap;html=1;aspect=fixed;fontFamily=Fira Code;" parent="Q0WurAzwjxZzjut6yVpk-1" vertex="1">
                    <mxGeometry x="140" y="120" width="40" height="40" as="geometry"/>
                </mxCell>
                <mxCell id="Q0WurAzwjxZzjut6yVpk-11" style="edgeStyle=none;rounded=0;orthogonalLoop=1;jettySize=auto;html=1;exitX=0.5;exitY=0;exitDx=0;exitDy=0;entryX=0;entryY=1;entryDx=0;entryDy=0;endArrow=none;endFill=0;fontFamily=Fira Code;" parent="Q0WurAzwjxZzjut6yVpk-1" source="Q0WurAzwjxZzjut6yVpk-10" target="Q0WurAzwjxZzjut6yVpk-2" edge="1">
                    <mxGeometry relative="1" as="geometry"/>
                </mxCell>
                <mxCell id="Q0WurAzwjxZzjut6yVpk-12" value="" style="whiteSpace=wrap;html=1;aspect=fixed;fontFamily=Fira Code;" parent="Q0WurAzwjxZzjut6yVpk-1" vertex="1">
                    <mxGeometry x="180" y="120" width="40" height="40" as="geometry"/>
                </mxCell>
            </root>
        </mxGraphModel>
    </diagram>
    <diagram name="Copy of Copy of Copy of Copy of Copy of Page-1" id="f0iGm5zRgIjHa1wngtVd">
        <mxGraphModel dx="1402" dy="860" grid="1" gridSize="10" guides="1" tooltips="1" connect="1" arrows="1" fold="1" page="1" pageScale="1" pageWidth="800" pageHeight="800" math="0" shadow="0">
            <root>
                <mxCell id="0JRxPiAjr7n6Qn1yzCB9-0"/>
                <mxCell id="0JRxPiAjr7n6Qn1yzCB9-1" parent="0JRxPiAjr7n6Qn1yzCB9-0"/>
                <mxCell id="0JRxPiAjr7n6Qn1yzCB9-2" value="10" style="whiteSpace=wrap;html=1;aspect=fixed;fontFamily=Fira Code;" parent="0JRxPiAjr7n6Qn1yzCB9-1" vertex="1">
                    <mxGeometry x="340" y="40" width="40" height="40" as="geometry"/>
                </mxCell>
                <mxCell id="0JRxPiAjr7n6Qn1yzCB9-3" style="edgeStyle=none;rounded=0;orthogonalLoop=1;jettySize=auto;html=1;exitX=0;exitY=1;exitDx=0;exitDy=0;entryX=0.5;entryY=0;entryDx=0;entryDy=0;endArrow=none;endFill=0;fontFamily=Fira Code;" parent="0JRxPiAjr7n6Qn1yzCB9-1" source="0JRxPiAjr7n6Qn1yzCB9-4" target="0JRxPiAjr7n6Qn1yzCB9-7" edge="1">
                    <mxGeometry relative="1" as="geometry"/>
                </mxCell>
                <mxCell id="0JRxPiAjr7n6Qn1yzCB9-16" style="edgeStyle=none;rounded=0;orthogonalLoop=1;jettySize=auto;html=1;exitX=1;exitY=1;exitDx=0;exitDy=0;entryX=0.5;entryY=0;entryDx=0;entryDy=0;endArrow=none;endFill=0;fontFamily=Fira Code;" parent="0JRxPiAjr7n6Qn1yzCB9-1" source="0JRxPiAjr7n6Qn1yzCB9-4" target="0JRxPiAjr7n6Qn1yzCB9-14" edge="1">
                    <mxGeometry relative="1" as="geometry"/>
                </mxCell>
                <mxCell id="0JRxPiAjr7n6Qn1yzCB9-4" value="40" style="whiteSpace=wrap;html=1;aspect=fixed;fontFamily=Fira Code;" parent="0JRxPiAjr7n6Qn1yzCB9-1" vertex="1">
                    <mxGeometry x="380" y="40" width="40" height="40" as="geometry"/>
                </mxCell>
                <mxCell id="0JRxPiAjr7n6Qn1yzCB9-5" value="" style="whiteSpace=wrap;html=1;aspect=fixed;fontFamily=Fira Code;" parent="0JRxPiAjr7n6Qn1yzCB9-1" vertex="1">
                    <mxGeometry x="420" y="40" width="40" height="40" as="geometry"/>
                </mxCell>
                <mxCell id="0JRxPiAjr7n6Qn1yzCB9-6" value="35" style="whiteSpace=wrap;html=1;aspect=fixed;fontFamily=Fira Code;" parent="0JRxPiAjr7n6Qn1yzCB9-1" vertex="1">
                    <mxGeometry x="260" y="120" width="40" height="40" as="geometry"/>
                </mxCell>
                <mxCell id="0JRxPiAjr7n6Qn1yzCB9-7" value="50" style="whiteSpace=wrap;html=1;aspect=fixed;fontFamily=Fira Code;" parent="0JRxPiAjr7n6Qn1yzCB9-1" vertex="1">
                    <mxGeometry x="300" y="120" width="40" height="40" as="geometry"/>
                </mxCell>
                <mxCell id="0JRxPiAjr7n6Qn1yzCB9-8" value="" style="whiteSpace=wrap;html=1;aspect=fixed;fontFamily=Fira Code;" parent="0JRxPiAjr7n6Qn1yzCB9-1" vertex="1">
                    <mxGeometry x="340" y="120" width="40" height="40" as="geometry"/>
                </mxCell>
                <mxCell id="0JRxPiAjr7n6Qn1yzCB9-9" value="5" style="whiteSpace=wrap;html=1;aspect=fixed;fontFamily=Fira Code;" parent="0JRxPiAjr7n6Qn1yzCB9-1" vertex="1">
                    <mxGeometry x="100" y="120" width="40" height="40" as="geometry"/>
                </mxCell>
                <mxCell id="0JRxPiAjr7n6Qn1yzCB9-10" value="" style="whiteSpace=wrap;html=1;aspect=fixed;fontFamily=Fira Code;" parent="0JRxPiAjr7n6Qn1yzCB9-1" vertex="1">
                    <mxGeometry x="140" y="120" width="40" height="40" as="geometry"/>
                </mxCell>
                <mxCell id="0JRxPiAjr7n6Qn1yzCB9-11" style="edgeStyle=none;rounded=0;orthogonalLoop=1;jettySize=auto;html=1;exitX=0.5;exitY=0;exitDx=0;exitDy=0;entryX=0;entryY=1;entryDx=0;entryDy=0;endArrow=none;endFill=0;fontFamily=Fira Code;" parent="0JRxPiAjr7n6Qn1yzCB9-1" source="0JRxPiAjr7n6Qn1yzCB9-10" target="0JRxPiAjr7n6Qn1yzCB9-2" edge="1">
                    <mxGeometry relative="1" as="geometry"/>
                </mxCell>
                <mxCell id="0JRxPiAjr7n6Qn1yzCB9-12" value="" style="whiteSpace=wrap;html=1;aspect=fixed;fontFamily=Fira Code;" parent="0JRxPiAjr7n6Qn1yzCB9-1" vertex="1">
                    <mxGeometry x="180" y="120" width="40" height="40" as="geometry"/>
                </mxCell>
                <mxCell id="0JRxPiAjr7n6Qn1yzCB9-13" value="" style="whiteSpace=wrap;html=1;aspect=fixed;fontFamily=Fira Code;" parent="0JRxPiAjr7n6Qn1yzCB9-1" vertex="1">
                    <mxGeometry x="420" y="120" width="40" height="40" as="geometry"/>
                </mxCell>
                <mxCell id="0JRxPiAjr7n6Qn1yzCB9-14" value="" style="whiteSpace=wrap;html=1;aspect=fixed;fontFamily=Fira Code;" parent="0JRxPiAjr7n6Qn1yzCB9-1" vertex="1">
                    <mxGeometry x="460" y="120" width="40" height="40" as="geometry"/>
                </mxCell>
                <mxCell id="0JRxPiAjr7n6Qn1yzCB9-15" value="" style="whiteSpace=wrap;html=1;aspect=fixed;fontFamily=Fira Code;" parent="0JRxPiAjr7n6Qn1yzCB9-1" vertex="1">
                    <mxGeometry x="500" y="120" width="40" height="40" as="geometry"/>
                </mxCell>
            </root>
        </mxGraphModel>
    </diagram>
    <diagram name="Copy of Copy of Copy of Copy of Copy of Copy of Page-1" id="-dGYWWlTF0H0IH7NlxBO">
        <mxGraphModel dx="1402" dy="860" grid="1" gridSize="10" guides="1" tooltips="1" connect="1" arrows="1" fold="1" page="1" pageScale="1" pageWidth="800" pageHeight="800" math="0" shadow="0">
            <root>
                <mxCell id="K9XlWrbIlJe3Oy5vcTGZ-0"/>
                <mxCell id="K9XlWrbIlJe3Oy5vcTGZ-1" parent="K9XlWrbIlJe3Oy5vcTGZ-0"/>
                <mxCell id="K9XlWrbIlJe3Oy5vcTGZ-2" value="10" style="whiteSpace=wrap;html=1;aspect=fixed;fontFamily=Fira Code;" parent="K9XlWrbIlJe3Oy5vcTGZ-1" vertex="1">
                    <mxGeometry x="340" y="40" width="40" height="40" as="geometry"/>
                </mxCell>
                <mxCell id="K9XlWrbIlJe3Oy5vcTGZ-3" style="edgeStyle=none;rounded=0;orthogonalLoop=1;jettySize=auto;html=1;exitX=0;exitY=1;exitDx=0;exitDy=0;entryX=0.5;entryY=0;entryDx=0;entryDy=0;endArrow=none;endFill=0;fontFamily=Fira Code;" parent="K9XlWrbIlJe3Oy5vcTGZ-1" source="K9XlWrbIlJe3Oy5vcTGZ-5" target="K9XlWrbIlJe3Oy5vcTGZ-8" edge="1">
                    <mxGeometry relative="1" as="geometry"/>
                </mxCell>
                <mxCell id="K9XlWrbIlJe3Oy5vcTGZ-4" style="edgeStyle=none;rounded=0;orthogonalLoop=1;jettySize=auto;html=1;exitX=1;exitY=1;exitDx=0;exitDy=0;entryX=0.5;entryY=0;entryDx=0;entryDy=0;endArrow=none;endFill=0;fontFamily=Fira Code;" parent="K9XlWrbIlJe3Oy5vcTGZ-1" source="K9XlWrbIlJe3Oy5vcTGZ-5" target="K9XlWrbIlJe3Oy5vcTGZ-15" edge="1">
                    <mxGeometry relative="1" as="geometry"/>
                </mxCell>
                <mxCell id="K9XlWrbIlJe3Oy5vcTGZ-5" value="40" style="whiteSpace=wrap;html=1;aspect=fixed;fontFamily=Fira Code;" parent="K9XlWrbIlJe3Oy5vcTGZ-1" vertex="1">
                    <mxGeometry x="380" y="40" width="40" height="40" as="geometry"/>
                </mxCell>
                <mxCell id="K9XlWrbIlJe3Oy5vcTGZ-6" value="" style="whiteSpace=wrap;html=1;aspect=fixed;fontFamily=Fira Code;" parent="K9XlWrbIlJe3Oy5vcTGZ-1" vertex="1">
                    <mxGeometry x="420" y="40" width="40" height="40" as="geometry"/>
                </mxCell>
                <mxCell id="K9XlWrbIlJe3Oy5vcTGZ-7" value="35" style="whiteSpace=wrap;html=1;aspect=fixed;fontFamily=Fira Code;" parent="K9XlWrbIlJe3Oy5vcTGZ-1" vertex="1">
                    <mxGeometry x="260" y="120" width="40" height="40" as="geometry"/>
                </mxCell>
                <mxCell id="K9XlWrbIlJe3Oy5vcTGZ-8" value="" style="whiteSpace=wrap;html=1;aspect=fixed;fontFamily=Fira Code;" parent="K9XlWrbIlJe3Oy5vcTGZ-1" vertex="1">
                    <mxGeometry x="300" y="120" width="40" height="40" as="geometry"/>
                </mxCell>
                <mxCell id="K9XlWrbIlJe3Oy5vcTGZ-9" value="" style="whiteSpace=wrap;html=1;aspect=fixed;fontFamily=Fira Code;" parent="K9XlWrbIlJe3Oy5vcTGZ-1" vertex="1">
                    <mxGeometry x="340" y="120" width="40" height="40" as="geometry"/>
                </mxCell>
                <mxCell id="K9XlWrbIlJe3Oy5vcTGZ-10" value="5" style="whiteSpace=wrap;html=1;aspect=fixed;fontFamily=Fira Code;" parent="K9XlWrbIlJe3Oy5vcTGZ-1" vertex="1">
                    <mxGeometry x="100" y="120" width="40" height="40" as="geometry"/>
                </mxCell>
                <mxCell id="K9XlWrbIlJe3Oy5vcTGZ-11" value="" style="whiteSpace=wrap;html=1;aspect=fixed;fontFamily=Fira Code;" parent="K9XlWrbIlJe3Oy5vcTGZ-1" vertex="1">
                    <mxGeometry x="140" y="120" width="40" height="40" as="geometry"/>
                </mxCell>
                <mxCell id="K9XlWrbIlJe3Oy5vcTGZ-12" style="edgeStyle=none;rounded=0;orthogonalLoop=1;jettySize=auto;html=1;exitX=0.5;exitY=0;exitDx=0;exitDy=0;entryX=0;entryY=1;entryDx=0;entryDy=0;endArrow=none;endFill=0;fontFamily=Fira Code;" parent="K9XlWrbIlJe3Oy5vcTGZ-1" source="K9XlWrbIlJe3Oy5vcTGZ-11" target="K9XlWrbIlJe3Oy5vcTGZ-2" edge="1">
                    <mxGeometry relative="1" as="geometry"/>
                </mxCell>
                <mxCell id="K9XlWrbIlJe3Oy5vcTGZ-13" value="" style="whiteSpace=wrap;html=1;aspect=fixed;fontFamily=Fira Code;" parent="K9XlWrbIlJe3Oy5vcTGZ-1" vertex="1">
                    <mxGeometry x="180" y="120" width="40" height="40" as="geometry"/>
                </mxCell>
                <mxCell id="K9XlWrbIlJe3Oy5vcTGZ-14" value="50" style="whiteSpace=wrap;html=1;aspect=fixed;fontFamily=Fira Code;" parent="K9XlWrbIlJe3Oy5vcTGZ-1" vertex="1">
                    <mxGeometry x="420" y="120" width="40" height="40" as="geometry"/>
                </mxCell>
                <mxCell id="K9XlWrbIlJe3Oy5vcTGZ-15" value="" style="whiteSpace=wrap;html=1;aspect=fixed;fontFamily=Fira Code;" parent="K9XlWrbIlJe3Oy5vcTGZ-1" vertex="1">
                    <mxGeometry x="460" y="120" width="40" height="40" as="geometry"/>
                </mxCell>
                <mxCell id="K9XlWrbIlJe3Oy5vcTGZ-16" value="" style="whiteSpace=wrap;html=1;aspect=fixed;fontFamily=Fira Code;" parent="K9XlWrbIlJe3Oy5vcTGZ-1" vertex="1">
                    <mxGeometry x="500" y="120" width="40" height="40" as="geometry"/>
                </mxCell>
            </root>
        </mxGraphModel>
    </diagram>
    <diagram name="Copy of Copy of Copy of Copy of Copy of Copy of Page-1" id="wqVmbMQT4xkudiFIsfeP">
        <mxGraphModel dx="1402" dy="860" grid="1" gridSize="10" guides="1" tooltips="1" connect="1" arrows="1" fold="1" page="1" pageScale="1" pageWidth="800" pageHeight="800" math="0" shadow="0">
            <root>
                <mxCell id="uyf4NqLMIOiE3qI-rST1-0"/>
                <mxCell id="uyf4NqLMIOiE3qI-rST1-1" parent="uyf4NqLMIOiE3qI-rST1-0"/>
                <mxCell id="uyf4NqLMIOiE3qI-rST1-2" value="10" style="whiteSpace=wrap;html=1;aspect=fixed;fontFamily=Fira Code;" parent="uyf4NqLMIOiE3qI-rST1-1" vertex="1">
                    <mxGeometry x="340" y="40" width="40" height="40" as="geometry"/>
                </mxCell>
                <mxCell id="uyf4NqLMIOiE3qI-rST1-3" style="edgeStyle=none;rounded=0;orthogonalLoop=1;jettySize=auto;html=1;exitX=0;exitY=1;exitDx=0;exitDy=0;entryX=0.5;entryY=0;entryDx=0;entryDy=0;endArrow=none;endFill=0;fontFamily=Fira Code;" parent="uyf4NqLMIOiE3qI-rST1-1" source="uyf4NqLMIOiE3qI-rST1-5" target="uyf4NqLMIOiE3qI-rST1-8" edge="1">
                    <mxGeometry relative="1" as="geometry"/>
                </mxCell>
                <mxCell id="uyf4NqLMIOiE3qI-rST1-4" style="edgeStyle=none;rounded=0;orthogonalLoop=1;jettySize=auto;html=1;exitX=1;exitY=1;exitDx=0;exitDy=0;entryX=0.5;entryY=0;entryDx=0;entryDy=0;endArrow=none;endFill=0;fontFamily=Fira Code;" parent="uyf4NqLMIOiE3qI-rST1-1" source="uyf4NqLMIOiE3qI-rST1-5" target="uyf4NqLMIOiE3qI-rST1-15" edge="1">
                    <mxGeometry relative="1" as="geometry"/>
                </mxCell>
                <mxCell id="uyf4NqLMIOiE3qI-rST1-5" value="40" style="whiteSpace=wrap;html=1;aspect=fixed;fontFamily=Fira Code;" parent="uyf4NqLMIOiE3qI-rST1-1" vertex="1">
                    <mxGeometry x="380" y="40" width="40" height="40" as="geometry"/>
                </mxCell>
                <mxCell id="uyf4NqLMIOiE3qI-rST1-6" value="" style="whiteSpace=wrap;html=1;aspect=fixed;fontFamily=Fira Code;" parent="uyf4NqLMIOiE3qI-rST1-1" vertex="1">
                    <mxGeometry x="420" y="40" width="40" height="40" as="geometry"/>
                </mxCell>
                <mxCell id="uyf4NqLMIOiE3qI-rST1-7" value="15" style="whiteSpace=wrap;html=1;aspect=fixed;fontFamily=Fira Code;" parent="uyf4NqLMIOiE3qI-rST1-1" vertex="1">
                    <mxGeometry x="260" y="120" width="40" height="40" as="geometry"/>
                </mxCell>
                <mxCell id="uyf4NqLMIOiE3qI-rST1-8" value="35" style="whiteSpace=wrap;html=1;aspect=fixed;fontFamily=Fira Code;" parent="uyf4NqLMIOiE3qI-rST1-1" vertex="1">
                    <mxGeometry x="300" y="120" width="40" height="40" as="geometry"/>
                </mxCell>
                <mxCell id="uyf4NqLMIOiE3qI-rST1-9" value="" style="whiteSpace=wrap;html=1;aspect=fixed;fontFamily=Fira Code;" parent="uyf4NqLMIOiE3qI-rST1-1" vertex="1">
                    <mxGeometry x="340" y="120" width="40" height="40" as="geometry"/>
                </mxCell>
                <mxCell id="uyf4NqLMIOiE3qI-rST1-10" value="5" style="whiteSpace=wrap;html=1;aspect=fixed;fontFamily=Fira Code;" parent="uyf4NqLMIOiE3qI-rST1-1" vertex="1">
                    <mxGeometry x="100" y="120" width="40" height="40" as="geometry"/>
                </mxCell>
                <mxCell id="uyf4NqLMIOiE3qI-rST1-11" value="" style="whiteSpace=wrap;html=1;aspect=fixed;fontFamily=Fira Code;" parent="uyf4NqLMIOiE3qI-rST1-1" vertex="1">
                    <mxGeometry x="140" y="120" width="40" height="40" as="geometry"/>
                </mxCell>
                <mxCell id="uyf4NqLMIOiE3qI-rST1-12" style="edgeStyle=none;rounded=0;orthogonalLoop=1;jettySize=auto;html=1;exitX=0.5;exitY=0;exitDx=0;exitDy=0;entryX=0;entryY=1;entryDx=0;entryDy=0;endArrow=none;endFill=0;fontFamily=Fira Code;" parent="uyf4NqLMIOiE3qI-rST1-1" source="uyf4NqLMIOiE3qI-rST1-11" target="uyf4NqLMIOiE3qI-rST1-2" edge="1">
                    <mxGeometry relative="1" as="geometry"/>
                </mxCell>
                <mxCell id="uyf4NqLMIOiE3qI-rST1-13" value="" style="whiteSpace=wrap;html=1;aspect=fixed;fontFamily=Fira Code;" parent="uyf4NqLMIOiE3qI-rST1-1" vertex="1">
                    <mxGeometry x="180" y="120" width="40" height="40" as="geometry"/>
                </mxCell>
                <mxCell id="uyf4NqLMIOiE3qI-rST1-14" value="50" style="whiteSpace=wrap;html=1;aspect=fixed;fontFamily=Fira Code;" parent="uyf4NqLMIOiE3qI-rST1-1" vertex="1">
                    <mxGeometry x="420" y="120" width="40" height="40" as="geometry"/>
                </mxCell>
                <mxCell id="uyf4NqLMIOiE3qI-rST1-15" value="" style="whiteSpace=wrap;html=1;aspect=fixed;fontFamily=Fira Code;" parent="uyf4NqLMIOiE3qI-rST1-1" vertex="1">
                    <mxGeometry x="460" y="120" width="40" height="40" as="geometry"/>
                </mxCell>
                <mxCell id="uyf4NqLMIOiE3qI-rST1-16" value="" style="whiteSpace=wrap;html=1;aspect=fixed;fontFamily=Fira Code;" parent="uyf4NqLMIOiE3qI-rST1-1" vertex="1">
                    <mxGeometry x="500" y="120" width="40" height="40" as="geometry"/>
                </mxCell>
            </root>
        </mxGraphModel>
    </diagram>
    <diagram name="Copy of Copy of Copy of Copy of Copy of Copy of Copy of Page-1" id="kQtmSw57SXB7Nj4578v1">
        <mxGraphModel dx="1402" dy="860" grid="1" gridSize="10" guides="1" tooltips="1" connect="1" arrows="1" fold="1" page="1" pageScale="1" pageWidth="800" pageHeight="800" math="0" shadow="0">
            <root>
                <mxCell id="AIriICVnCUw-iJRgkBQp-0"/>
                <mxCell id="AIriICVnCUw-iJRgkBQp-1" parent="AIriICVnCUw-iJRgkBQp-0"/>
                <mxCell id="AIriICVnCUw-iJRgkBQp-2" value="10" style="whiteSpace=wrap;html=1;aspect=fixed;fontFamily=Fira Code;" parent="AIriICVnCUw-iJRgkBQp-1" vertex="1">
                    <mxGeometry x="340" y="40" width="40" height="40" as="geometry"/>
                </mxCell>
                <mxCell id="AIriICVnCUw-iJRgkBQp-3" style="edgeStyle=none;rounded=0;orthogonalLoop=1;jettySize=auto;html=1;exitX=0;exitY=1;exitDx=0;exitDy=0;entryX=0.5;entryY=0;entryDx=0;entryDy=0;endArrow=none;endFill=0;fontFamily=Fira Code;" parent="AIriICVnCUw-iJRgkBQp-1" source="AIriICVnCUw-iJRgkBQp-5" target="AIriICVnCUw-iJRgkBQp-8" edge="1">
                    <mxGeometry relative="1" as="geometry"/>
                </mxCell>
                <mxCell id="AIriICVnCUw-iJRgkBQp-4" style="edgeStyle=none;rounded=0;orthogonalLoop=1;jettySize=auto;html=1;exitX=1;exitY=1;exitDx=0;exitDy=0;entryX=0.5;entryY=0;entryDx=0;entryDy=0;endArrow=none;endFill=0;fontFamily=Fira Code;" parent="AIriICVnCUw-iJRgkBQp-1" source="AIriICVnCUw-iJRgkBQp-5" target="AIriICVnCUw-iJRgkBQp-15" edge="1">
                    <mxGeometry relative="1" as="geometry"/>
                </mxCell>
                <mxCell id="AIriICVnCUw-iJRgkBQp-5" value="40" style="whiteSpace=wrap;html=1;aspect=fixed;fontFamily=Fira Code;" parent="AIriICVnCUw-iJRgkBQp-1" vertex="1">
                    <mxGeometry x="380" y="40" width="40" height="40" as="geometry"/>
                </mxCell>
                <mxCell id="AIriICVnCUw-iJRgkBQp-6" value="" style="whiteSpace=wrap;html=1;aspect=fixed;fontFamily=Fira Code;" parent="AIriICVnCUw-iJRgkBQp-1" vertex="1">
                    <mxGeometry x="420" y="40" width="40" height="40" as="geometry"/>
                </mxCell>
                <mxCell id="AIriICVnCUw-iJRgkBQp-7" value="15" style="whiteSpace=wrap;html=1;aspect=fixed;fontFamily=Fira Code;" parent="AIriICVnCUw-iJRgkBQp-1" vertex="1">
                    <mxGeometry x="260" y="120" width="40" height="40" as="geometry"/>
                </mxCell>
                <mxCell id="AIriICVnCUw-iJRgkBQp-8" value="35" style="whiteSpace=wrap;html=1;aspect=fixed;fontFamily=Fira Code;" parent="AIriICVnCUw-iJRgkBQp-1" vertex="1">
                    <mxGeometry x="300" y="120" width="40" height="40" as="geometry"/>
                </mxCell>
                <mxCell id="AIriICVnCUw-iJRgkBQp-9" value="" style="whiteSpace=wrap;html=1;aspect=fixed;fontFamily=Fira Code;" parent="AIriICVnCUw-iJRgkBQp-1" vertex="1">
                    <mxGeometry x="340" y="120" width="40" height="40" as="geometry"/>
                </mxCell>
                <mxCell id="AIriICVnCUw-iJRgkBQp-10" value="5" style="whiteSpace=wrap;html=1;aspect=fixed;fontFamily=Fira Code;" parent="AIriICVnCUw-iJRgkBQp-1" vertex="1">
                    <mxGeometry x="100" y="120" width="40" height="40" as="geometry"/>
                </mxCell>
                <mxCell id="AIriICVnCUw-iJRgkBQp-11" value="" style="whiteSpace=wrap;html=1;aspect=fixed;fontFamily=Fira Code;" parent="AIriICVnCUw-iJRgkBQp-1" vertex="1">
                    <mxGeometry x="140" y="120" width="40" height="40" as="geometry"/>
                </mxCell>
                <mxCell id="AIriICVnCUw-iJRgkBQp-12" style="edgeStyle=none;rounded=0;orthogonalLoop=1;jettySize=auto;html=1;exitX=0.5;exitY=0;exitDx=0;exitDy=0;entryX=0;entryY=1;entryDx=0;entryDy=0;endArrow=none;endFill=0;fontFamily=Fira Code;" parent="AIriICVnCUw-iJRgkBQp-1" source="AIriICVnCUw-iJRgkBQp-11" target="AIriICVnCUw-iJRgkBQp-2" edge="1">
                    <mxGeometry relative="1" as="geometry"/>
                </mxCell>
                <mxCell id="AIriICVnCUw-iJRgkBQp-13" value="" style="whiteSpace=wrap;html=1;aspect=fixed;fontFamily=Fira Code;" parent="AIriICVnCUw-iJRgkBQp-1" vertex="1">
                    <mxGeometry x="180" y="120" width="40" height="40" as="geometry"/>
                </mxCell>
                <mxCell id="AIriICVnCUw-iJRgkBQp-14" value="50" style="whiteSpace=wrap;html=1;aspect=fixed;fontFamily=Fira Code;" parent="AIriICVnCUw-iJRgkBQp-1" vertex="1">
                    <mxGeometry x="420" y="120" width="40" height="40" as="geometry"/>
                </mxCell>
                <mxCell id="AIriICVnCUw-iJRgkBQp-15" value="95" style="whiteSpace=wrap;html=1;aspect=fixed;fontFamily=Fira Code;" parent="AIriICVnCUw-iJRgkBQp-1" vertex="1">
                    <mxGeometry x="460" y="120" width="40" height="40" as="geometry"/>
                </mxCell>
                <mxCell id="AIriICVnCUw-iJRgkBQp-16" value="" style="whiteSpace=wrap;html=1;aspect=fixed;fontFamily=Fira Code;" parent="AIriICVnCUw-iJRgkBQp-1" vertex="1">
                    <mxGeometry x="500" y="120" width="40" height="40" as="geometry"/>
                </mxCell>
            </root>
        </mxGraphModel>
    </diagram>
    <diagram name="Copy of Copy of Copy of Copy of Copy of Copy of Copy of Copy of Page-1" id="hAb74xEh68mWS4zFDHz8">
        <mxGraphModel dx="1402" dy="860" grid="1" gridSize="10" guides="1" tooltips="1" connect="1" arrows="1" fold="1" page="1" pageScale="1" pageWidth="800" pageHeight="800" math="0" shadow="0">
            <root>
                <mxCell id="haDNQPOJsOvf_0ne-yyy-0"/>
                <mxCell id="haDNQPOJsOvf_0ne-yyy-1" parent="haDNQPOJsOvf_0ne-yyy-0"/>
                <mxCell id="haDNQPOJsOvf_0ne-yyy-2" value="10" style="whiteSpace=wrap;html=1;aspect=fixed;fontFamily=Fira Code;" parent="haDNQPOJsOvf_0ne-yyy-1" vertex="1">
                    <mxGeometry x="340" y="40" width="40" height="40" as="geometry"/>
                </mxCell>
                <mxCell id="haDNQPOJsOvf_0ne-yyy-3" style="edgeStyle=none;rounded=0;orthogonalLoop=1;jettySize=auto;html=1;exitX=0;exitY=1;exitDx=0;exitDy=0;entryX=0.5;entryY=0;entryDx=0;entryDy=0;endArrow=none;endFill=0;fontFamily=Fira Code;" parent="haDNQPOJsOvf_0ne-yyy-1" source="haDNQPOJsOvf_0ne-yyy-5" target="haDNQPOJsOvf_0ne-yyy-8" edge="1">
                    <mxGeometry relative="1" as="geometry"/>
                </mxCell>
                <mxCell id="haDNQPOJsOvf_0ne-yyy-4" style="edgeStyle=none;rounded=0;orthogonalLoop=1;jettySize=auto;html=1;exitX=1;exitY=1;exitDx=0;exitDy=0;entryX=0.5;entryY=0;entryDx=0;entryDy=0;endArrow=none;endFill=0;fontFamily=Fira Code;" parent="haDNQPOJsOvf_0ne-yyy-1" source="haDNQPOJsOvf_0ne-yyy-5" target="haDNQPOJsOvf_0ne-yyy-15" edge="1">
                    <mxGeometry relative="1" as="geometry"/>
                </mxCell>
                <mxCell id="haDNQPOJsOvf_0ne-yyy-5" value="40" style="whiteSpace=wrap;html=1;aspect=fixed;fontFamily=Fira Code;" parent="haDNQPOJsOvf_0ne-yyy-1" vertex="1">
                    <mxGeometry x="380" y="40" width="40" height="40" as="geometry"/>
                </mxCell>
                <mxCell id="haDNQPOJsOvf_0ne-yyy-6" value="" style="whiteSpace=wrap;html=1;aspect=fixed;fontFamily=Fira Code;" parent="haDNQPOJsOvf_0ne-yyy-1" vertex="1">
                    <mxGeometry x="420" y="40" width="40" height="40" as="geometry"/>
                </mxCell>
                <mxCell id="haDNQPOJsOvf_0ne-yyy-7" value="15" style="whiteSpace=wrap;html=1;aspect=fixed;fontFamily=Fira Code;" parent="haDNQPOJsOvf_0ne-yyy-1" vertex="1">
                    <mxGeometry x="260" y="120" width="40" height="40" as="geometry"/>
                </mxCell>
                <mxCell id="haDNQPOJsOvf_0ne-yyy-8" value="35" style="whiteSpace=wrap;html=1;aspect=fixed;fontFamily=Fira Code;" parent="haDNQPOJsOvf_0ne-yyy-1" vertex="1">
                    <mxGeometry x="300" y="120" width="40" height="40" as="geometry"/>
                </mxCell>
                <mxCell id="haDNQPOJsOvf_0ne-yyy-9" value="" style="whiteSpace=wrap;html=1;aspect=fixed;fontFamily=Fira Code;" parent="haDNQPOJsOvf_0ne-yyy-1" vertex="1">
                    <mxGeometry x="340" y="120" width="40" height="40" as="geometry"/>
                </mxCell>
                <mxCell id="haDNQPOJsOvf_0ne-yyy-10" value="5" style="whiteSpace=wrap;html=1;aspect=fixed;fontFamily=Fira Code;" parent="haDNQPOJsOvf_0ne-yyy-1" vertex="1">
                    <mxGeometry x="100" y="120" width="40" height="40" as="geometry"/>
                </mxCell>
                <mxCell id="haDNQPOJsOvf_0ne-yyy-11" value="" style="whiteSpace=wrap;html=1;aspect=fixed;fontFamily=Fira Code;" parent="haDNQPOJsOvf_0ne-yyy-1" vertex="1">
                    <mxGeometry x="140" y="120" width="40" height="40" as="geometry"/>
                </mxCell>
                <mxCell id="haDNQPOJsOvf_0ne-yyy-12" style="edgeStyle=none;rounded=0;orthogonalLoop=1;jettySize=auto;html=1;exitX=0.5;exitY=0;exitDx=0;exitDy=0;entryX=0;entryY=1;entryDx=0;entryDy=0;endArrow=none;endFill=0;fontFamily=Fira Code;" parent="haDNQPOJsOvf_0ne-yyy-1" source="haDNQPOJsOvf_0ne-yyy-11" target="haDNQPOJsOvf_0ne-yyy-2" edge="1">
                    <mxGeometry relative="1" as="geometry"/>
                </mxCell>
                <mxCell id="haDNQPOJsOvf_0ne-yyy-13" value="" style="whiteSpace=wrap;html=1;aspect=fixed;fontFamily=Fira Code;" parent="haDNQPOJsOvf_0ne-yyy-1" vertex="1">
                    <mxGeometry x="180" y="120" width="40" height="40" as="geometry"/>
                </mxCell>
                <mxCell id="haDNQPOJsOvf_0ne-yyy-14" value="50" style="whiteSpace=wrap;html=1;aspect=fixed;fontFamily=Fira Code;" parent="haDNQPOJsOvf_0ne-yyy-1" vertex="1">
                    <mxGeometry x="420" y="120" width="40" height="40" as="geometry"/>
                </mxCell>
                <mxCell id="haDNQPOJsOvf_0ne-yyy-15" value="60" style="whiteSpace=wrap;html=1;aspect=fixed;fontFamily=Fira Code;" parent="haDNQPOJsOvf_0ne-yyy-1" vertex="1">
                    <mxGeometry x="460" y="120" width="40" height="40" as="geometry"/>
                </mxCell>
                <mxCell id="haDNQPOJsOvf_0ne-yyy-16" value="95" style="whiteSpace=wrap;html=1;aspect=fixed;fontFamily=Fira Code;" parent="haDNQPOJsOvf_0ne-yyy-1" vertex="1">
                    <mxGeometry x="500" y="120" width="40" height="40" as="geometry"/>
                </mxCell>
            </root>
        </mxGraphModel>
    </diagram>
</mxfile>